<svg width="131" height="171" viewBox="0 0 131 171" fill="none" xmlns="http://www.w3.org/2000/svg">
<path fill-rule="evenodd" clip-rule="evenodd" d="M31.3961 70.09C14.9001 87.916 1.05805 103.067 0.636055 103.76C0.131055 104.59 4.93305 110.518 14.6851 121.105L29.5001 137.19L29.7901 129.148L30.0791 121.105L40.0401 111.914L50.0001 102.723V84.7641V66.8061L56.7261 59.6531C60.4251 55.7191 64.6891 51.14 66.2001 49.479L68.9491 46.4581L65.1691 42.0691L61.3891 37.6801L31.3961 70.09ZM99.0431 105.167L99.0871 130.5L107.072 122C111.464 117.325 116.798 111.469 118.924 108.987L122.789 104.474L111.69 92.4871C105.586 85.8941 100.233 80.3501 99.7961 80.1671C99.3581 79.9831 99.0201 91.2331 99.0431 105.167Z" fill="black"/>
<path fill-rule="evenodd" clip-rule="evenodd" d="M21.4197 1.01382C5.8987 4.97682 -1.0803 18.9418 1.5387 40.7968C3.1357 54.1148 4.2817 55.5568 4.3567 44.3388C4.4777 26.1348 8.5667 17.3028 19.5477 11.5278C25.9187 8.17782 25.9217 8.17682 37.4197 8.64082C46.2947 8.99882 50.8607 9.72983 57.4197 11.8428C75.3157 17.6078 95.5397 29.1808 115.559 45.1118C132.988 58.9818 133.333 59.1878 125.42 50.9858C98.6107 23.1998 60.5717 1.94183 34.4197 0.129825C29.6037 -0.204175 24.9507 0.111825 21.4197 1.01382ZM84.4537 89.0698L84.4867 146.879L93.5797 137.379C98.5807 132.154 107.636 122.582 113.701 116.108L124.73 104.338L122.768 102.108C121.689 100.882 116.219 94.8828 110.613 88.7758L100.42 77.6738V61.2298V44.7868L93.6697 38.7728C89.9567 35.4658 86.3577 32.4228 85.6697 32.0098C84.6757 31.4138 84.4267 43.0828 84.4537 89.0698ZM31.9087 69.9148C15.4147 87.8108 1.7917 103.018 1.6357 103.709C1.3817 104.837 29.6147 136.402 31.6017 137.212C32.0517 137.396 32.4407 133.571 32.4657 128.712L32.5127 119.879L42.4027 110.879L52.2927 101.879L52.3557 83.8688L52.4197 65.8588L61.4197 56.2058C66.3697 50.8968 70.4197 46.1558 70.4197 45.6688C70.4197 44.7758 63.2347 37.3788 62.3667 37.3788C62.1097 37.3788 48.4037 52.0198 31.9087 69.9148ZM55.0327 113.913L47.4197 122.447V138.546V154.645L55.4047 162.762L63.3897 170.879L63.4047 138.129C63.4127 120.117 63.2457 105.379 63.0327 105.379C62.8197 105.379 59.2197 109.219 55.0327 113.913Z" fill="#7EC6ED" fill-opacity="0.75"/>
<path fill-rule="evenodd" clip-rule="evenodd" d="M31.917 69.694C15.738 87.197 1.89901 102.28 1.16501 103.213C-0.0169861 104.716 1.52101 106.736 14.665 120.95L29.5 136.99L29.79 129.049L30.079 121.108L40.04 111.864L50 102.621V84.724V66.827L56.221 60.163C59.643 56.499 63.882 51.925 65.64 50L68.838 46.5L65.086 42.186L61.334 37.871L31.917 69.694ZM99 105.218V130.435L107.25 121.473C111.787 116.544 117.139 110.726 119.143 108.544L122.785 104.576L111.643 92.384C105.514 85.678 100.162 80.149 99.75 80.096C99.338 80.043 99 91.348 99 105.218Z" fill="#013DD0"/>
</svg>
